<svg xmlns="http://www.w3.org/2000/svg" width="1200" height="760" viewBox="0 0 1200 760" role="img" aria-labelledby="title desc"><title id="title">Walking Bass Lines diagram</title><desc id="desc">Instructional diagram for Walking Bass Lines in the intermediate bass lesson.</desc><defs><linearGradient id="panel" x1="0" x2="1" y1="0" y2="1"><stop offset="0" stop-color="#171717"/><stop offset="1" stop-color="#111827"/></linearGradient><filter id="softShadow"><feDropShadow dx="0" dy="24" stdDeviation="18" flood-color="#000" flood-opacity="0.45"/></filter></defs><rect width="1200" height="760" fill="#0a0a0a"/><rect x="42" y="42" width="1116" height="676" rx="30" fill="url(#panel)" stroke="rgba(212,175,55,0.55)" stroke-width="3"/><path d="M76 622 C258 552 414 660 596 590 C778 520 910 594 1126 520" fill="none" stroke="#d4af37" stroke-width="3" opacity="0.22"/><g filter="url(#softShadow)"><ellipse cx="310" cy="330" rx="105" ry="118" fill="#4b5563" stroke="#d4af37" stroke-width="6"/><circle cx="310" cy="330" r="44" fill="#090909" stroke="#d4af37" stroke-width="4"/><rect x="390" y="300" width="360" height="58" rx="20" fill="#4a2f17" stroke="#d4af37" stroke-width="4"/><rect x="750" y="286" width="86" height="86" rx="18" fill="#2a180a" stroke="#d4af37" stroke-width="4"/><line x1="222" y1="307" x2="816" y2="307" stroke="#f6f0df" stroke-width="4" opacity="0.88"/><line x1="222" y1="321.6666666666667" x2="816" y2="321.6666666666667" stroke="#f6f0df" stroke-width="4" opacity="0.88"/><line x1="222" y1="336.3333333333333" x2="816" y2="336.3333333333333" stroke="#f6f0df" stroke-width="4" opacity="0.88"/><line x1="222" y1="351" x2="816" y2="351" stroke="#f6f0df" stroke-width="4" opacity="0.88"/><line x1="426" y1="300" x2="426" y2="358" stroke="#d7caa6" stroke-width="2" opacity="0.7"/><line x1="470" y1="300" x2="470" y2="358" stroke="#d7caa6" stroke-width="2" opacity="0.7"/><line x1="514" y1="300" x2="514" y2="358" stroke="#d7caa6" stroke-width="2" opacity="0.7"/><line x1="558" y1="300" x2="558" y2="358" stroke="#d7caa6" stroke-width="2" opacity="0.7"/><line x1="602" y1="300" x2="602" y2="358" stroke="#d7caa6" stroke-width="2" opacity="0.7"/><line x1="646" y1="300" x2="646" y2="358" stroke="#d7caa6" stroke-width="2" opacity="0.7"/><line x1="690" y1="300" x2="690" y2="358" stroke="#d7caa6" stroke-width="2" opacity="0.7"/></g><text x="92" y="118" fill="#d4af37" font-size="22" font-family="Inter, Arial, sans-serif" font-weight="900" letter-spacing="4">BASS / INTERMEDIATE</text><text x="92" y="178" fill="#f8f3e4" font-size="44" font-family="Inter, Arial, sans-serif" font-weight="700">Walking Bass Lines</text><text x="92" y="302" fill="#b8ad93" font-size="25" font-family="Inter, Arial, sans-serif">Connecting chords smoothly</text><g><circle cx="786" cy="190" r="22" fill="#d4af37"/><text x="786" y="198" text-anchor="middle" fill="#0a0a0a" font-size="22" font-family="Inter, Arial, sans-serif" font-weight="900">1</text><text x="820" y="198" fill="#f6f0df" font-size="22" font-family="Inter, Arial, sans-serif" font-weight="800">Pattern focus</text><circle cx="786" cy="278" r="22" fill="#d4af37"/><text x="786" y="286" text-anchor="middle" fill="#0a0a0a" font-size="22" font-family="Inter, Arial, sans-serif" font-weight="900">2</text><text x="820" y="286" fill="#f6f0df" font-size="22" font-family="Inter, Arial, sans-serif" font-weight="800">Control point</text><circle cx="786" cy="366" r="22" fill="#d4af37"/><text x="786" y="374" text-anchor="middle" fill="#0a0a0a" font-size="22" font-family="Inter, Arial, sans-serif" font-weight="900">3</text><text x="820" y="374" fill="#f6f0df" font-size="22" font-family="Inter, Arial, sans-serif" font-weight="800">Practice loop</text></g><rect x="760" y="470" width="320" height="110" rx="18" fill="rgba(255,255,255,0.07)" stroke="rgba(212,175,55,0.35)"/><text x="790" y="514" fill="#d4af37" font-size="22" font-family="Inter, Arial, sans-serif" font-weight="900">Practice Check</text><text x="790" y="552" fill="#f6f0df" font-size="22" font-family="Inter, Arial, sans-serif">Study the labels, then take</text><text x="790" y="582" fill="#f6f0df" font-size="22" font-family="Inter, Arial, sans-serif">the quiz to unlock progress.</text><text x="92" y="666" fill="#8f866f" font-size="19" font-family="Inter, Arial, sans-serif">Crescendo verified lesson diagram 49</text></svg>