<svg xmlns="http://www.w3.org/2000/svg" width="1200" height="760" viewBox="0 0 1200 760" role="img" aria-labelledby="title desc"><title id="title">Fills and Transitions diagram</title><desc id="desc">Instructional diagram for Fills and Transitions in the intermediate drums lesson.</desc><defs><linearGradient id="panel" x1="0" x2="1" y1="0" y2="1"><stop offset="0" stop-color="#171717"/><stop offset="1" stop-color="#20110f"/></linearGradient><filter id="softShadow"><feDropShadow dx="0" dy="24" stdDeviation="18" flood-color="#000" flood-opacity="0.45"/></filter></defs><rect width="1200" height="760" fill="#0a0a0a"/><rect x="42" y="42" width="1116" height="676" rx="30" fill="url(#panel)" stroke="rgba(212,175,55,0.55)" stroke-width="3"/><path d="M76 622 C258 552 414 660 596 590 C778 520 910 594 1126 520" fill="none" stroke="#d4af37" stroke-width="3" opacity="0.22"/><g filter="url(#softShadow)"><ellipse cx="392" cy="340" rx="118" ry="74" fill="#7f1d1d" stroke="#d4af37" stroke-width="6"/><ellipse cx="244" cy="282" rx="78" ry="48" fill="#2b2b2b" stroke="#d4af37" stroke-width="5"/><ellipse cx="540" cy="282" rx="78" ry="48" fill="#2b2b2b" stroke="#d4af37" stroke-width="5"/><circle cx="248" cy="180" r="64" fill="none" stroke="#d4af37" stroke-width="7"/><circle cx="536" cy="180" r="64" fill="none" stroke="#d4af37" stroke-width="7"/><line x1="304" y1="118" x2="510" y2="260" stroke="#f6f0df" stroke-width="8" stroke-linecap="round"/><line x1="480" y1="118" x2="274" y2="260" stroke="#f6f0df" stroke-width="8" stroke-linecap="round"/></g><text x="92" y="118" fill="#d4af37" font-size="22" font-family="Inter, Arial, sans-serif" font-weight="900" letter-spacing="4">DRUMS / INTERMEDIATE</text><text x="92" y="178" fill="#f8f3e4" font-size="44" font-family="Inter, Arial, sans-serif" font-weight="700">Fills and Transitions</text><text x="92" y="302" fill="#b8ad93" font-size="25" font-family="Inter, Arial, sans-serif">Connecting song sections</text><g><circle cx="786" cy="190" r="22" fill="#d4af37"/><text x="786" y="198" text-anchor="middle" fill="#0a0a0a" font-size="22" font-family="Inter, Arial, sans-serif" font-weight="900">1</text><text x="820" y="198" fill="#f6f0df" font-size="22" font-family="Inter, Arial, sans-serif" font-weight="800">Pattern focus</text><circle cx="786" cy="278" r="22" fill="#d4af37"/><text x="786" y="286" text-anchor="middle" fill="#0a0a0a" font-size="22" font-family="Inter, Arial, sans-serif" font-weight="900">2</text><text x="820" y="286" fill="#f6f0df" font-size="22" font-family="Inter, Arial, sans-serif" font-weight="800">Control point</text><circle cx="786" cy="366" r="22" fill="#d4af37"/><text x="786" y="374" text-anchor="middle" fill="#0a0a0a" font-size="22" font-family="Inter, Arial, sans-serif" font-weight="900">3</text><text x="820" y="374" fill="#f6f0df" font-size="22" font-family="Inter, Arial, sans-serif" font-weight="800">Practice loop</text></g><rect x="760" y="470" width="320" height="110" rx="18" fill="rgba(255,255,255,0.07)" stroke="rgba(212,175,55,0.35)"/><text x="790" y="514" fill="#d4af37" font-size="22" font-family="Inter, Arial, sans-serif" font-weight="900">Practice Check</text><text x="790" y="552" fill="#f6f0df" font-size="22" font-family="Inter, Arial, sans-serif">Study the labels, then take</text><text x="790" y="582" fill="#f6f0df" font-size="22" font-family="Inter, Arial, sans-serif">the quiz to unlock progress.</text><text x="92" y="666" fill="#8f866f" font-size="19" font-family="Inter, Arial, sans-serif">Crescendo verified lesson diagram 24</text></svg>