<svg xmlns="http://www.w3.org/2000/svg" width="1200" height="760" viewBox="0 0 1200 760" role="img" aria-labelledby="title desc"><title id="title">Reading Staff Notation diagram</title><desc id="desc">Instructional diagram for Reading Staff Notation in the intermediate piano lesson.</desc><defs><linearGradient id="panel" x1="0" x2="1" y1="0" y2="1"><stop offset="0" stop-color="#171717"/><stop offset="1" stop-color="#171717"/></linearGradient><filter id="softShadow"><feDropShadow dx="0" dy="24" stdDeviation="18" flood-color="#000" flood-opacity="0.45"/></filter></defs><rect width="1200" height="760" fill="#0a0a0a"/><rect x="42" y="42" width="1116" height="676" rx="30" fill="url(#panel)" stroke="rgba(212,175,55,0.55)" stroke-width="3"/><path d="M76 622 C258 552 414 660 596 590 C778 520 910 594 1126 520" fill="none" stroke="#f3f0e8" stroke-width="3" opacity="0.22"/><g filter="url(#softShadow)"><rect x="132" y="246" width="520" height="150" rx="18" fill="#f4f1e8" stroke="#f3f0e8" stroke-width="5"/><line x1="152" y1="246" x2="152" y2="396" stroke="#151515" stroke-width="3" opacity="0.35"/><line x1="187" y1="246" x2="187" y2="396" stroke="#151515" stroke-width="3" opacity="0.35"/><line x1="222" y1="246" x2="222" y2="396" stroke="#151515" stroke-width="3" opacity="0.35"/><line x1="257" y1="246" x2="257" y2="396" stroke="#151515" stroke-width="3" opacity="0.35"/><line x1="292" y1="246" x2="292" y2="396" stroke="#151515" stroke-width="3" opacity="0.35"/><line x1="327" y1="246" x2="327" y2="396" stroke="#151515" stroke-width="3" opacity="0.35"/><line x1="362" y1="246" x2="362" y2="396" stroke="#151515" stroke-width="3" opacity="0.35"/><line x1="397" y1="246" x2="397" y2="396" stroke="#151515" stroke-width="3" opacity="0.35"/><line x1="432" y1="246" x2="432" y2="396" stroke="#151515" stroke-width="3" opacity="0.35"/><line x1="467" y1="246" x2="467" y2="396" stroke="#151515" stroke-width="3" opacity="0.35"/><line x1="502" y1="246" x2="502" y2="396" stroke="#151515" stroke-width="3" opacity="0.35"/><line x1="537" y1="246" x2="537" y2="396" stroke="#151515" stroke-width="3" opacity="0.35"/><line x1="572" y1="246" x2="572" y2="396" stroke="#151515" stroke-width="3" opacity="0.35"/><line x1="607" y1="246" x2="607" y2="396" stroke="#151515" stroke-width="3" opacity="0.35"/><rect x="162" y="246" width="22" height="88" rx="3" fill="#101010"/><rect x="197" y="246" width="22" height="88" rx="3" fill="#101010"/><rect x="267" y="246" width="22" height="88" rx="3" fill="#101010"/><rect x="302" y="246" width="22" height="88" rx="3" fill="#101010"/><rect x="337" y="246" width="22" height="88" rx="3" fill="#101010"/><rect x="407" y="246" width="22" height="88" rx="3" fill="#101010"/><rect x="442" y="246" width="22" height="88" rx="3" fill="#101010"/><rect x="512" y="246" width="22" height="88" rx="3" fill="#101010"/><rect x="547" y="246" width="22" height="88" rx="3" fill="#101010"/><rect x="582" y="246" width="22" height="88" rx="3" fill="#101010"/><circle cx="392" cy="428" r="10" fill="#f3f0e8"/><text x="410" y="435" fill="#f6f0df" font-size="22" font-family="Inter, Arial">Middle C reference</text></g><text x="92" y="118" fill="#d4af37" font-size="22" font-family="Inter, Arial, sans-serif" font-weight="900" letter-spacing="4">PIANO / INTERMEDIATE</text><text x="92" y="178" fill="#f8f3e4" font-size="44" font-family="Inter, Arial, sans-serif" font-weight="700">Reading Staff Notation</text><text x="92" y="302" fill="#b8ad93" font-size="25" font-family="Inter, Arial, sans-serif">Treble and bass clef basics</text><g><circle cx="786" cy="190" r="22" fill="#d4af37"/><text x="786" y="198" text-anchor="middle" fill="#0a0a0a" font-size="22" font-family="Inter, Arial, sans-serif" font-weight="900">1</text><text x="820" y="198" fill="#f6f0df" font-size="22" font-family="Inter, Arial, sans-serif" font-weight="800">Pattern focus</text><circle cx="786" cy="278" r="22" fill="#d4af37"/><text x="786" y="286" text-anchor="middle" fill="#0a0a0a" font-size="22" font-family="Inter, Arial, sans-serif" font-weight="900">2</text><text x="820" y="286" fill="#f6f0df" font-size="22" font-family="Inter, Arial, sans-serif" font-weight="800">Control point</text><circle cx="786" cy="366" r="22" fill="#d4af37"/><text x="786" y="374" text-anchor="middle" fill="#0a0a0a" font-size="22" font-family="Inter, Arial, sans-serif" font-weight="900">3</text><text x="820" y="374" fill="#f6f0df" font-size="22" font-family="Inter, Arial, sans-serif" font-weight="800">Practice loop</text></g><rect x="760" y="470" width="320" height="110" rx="18" fill="rgba(255,255,255,0.07)" stroke="rgba(212,175,55,0.35)"/><text x="790" y="514" fill="#d4af37" font-size="22" font-family="Inter, Arial, sans-serif" font-weight="900">Practice Check</text><text x="790" y="552" fill="#f6f0df" font-size="22" font-family="Inter, Arial, sans-serif">Study the labels, then take</text><text x="790" y="582" fill="#f6f0df" font-size="22" font-family="Inter, Arial, sans-serif">the quiz to unlock progress.</text><text x="92" y="666" fill="#8f866f" font-size="19" font-family="Inter, Arial, sans-serif">Crescendo verified lesson diagram 14</text></svg>