<svg xmlns="http://www.w3.org/2000/svg" width="1200" height="760" viewBox="0 0 1200 760" role="img" aria-labelledby="title desc"><title id="title">First Position Scales diagram</title><desc id="desc">Instructional diagram for First Position Scales in the intermediate violin lesson.</desc><defs><linearGradient id="panel" x1="0" x2="1" y1="0" y2="1"><stop offset="0" stop-color="#171717"/><stop offset="1" stop-color="#24160c"/></linearGradient><filter id="softShadow"><feDropShadow dx="0" dy="24" stdDeviation="18" flood-color="#000" flood-opacity="0.45"/></filter></defs><rect width="1200" height="760" fill="#0a0a0a"/><rect x="42" y="42" width="1116" height="676" rx="30" fill="url(#panel)" stroke="rgba(212,175,55,0.55)" stroke-width="3"/><path d="M76 622 C258 552 414 660 596 590 C778 520 910 594 1126 520" fill="none" stroke="#d4af37" stroke-width="3" opacity="0.22"/><g filter="url(#softShadow)"><path d="M392 154 C304 166 304 248 354 274 C286 306 300 418 392 432 C484 418 498 306 430 274 C480 248 480 166 392 154Z" fill="#8b5a2b" stroke="#d4af37" stroke-width="6"/><rect x="378" y="96" width="28" height="360" rx="14" fill="#1a1209" stroke="#d4af37" stroke-width="3"/><path d="M334 274 C360 256 424 256 450 274" fill="none" stroke="#0a0a0a" stroke-width="8"/><line x1="374" y1="112" x2="374" y2="450" stroke="#f6f0df" stroke-width="2"/><line x1="386" y1="112" x2="386" y2="450" stroke="#f6f0df" stroke-width="2"/><line x1="398" y1="112" x2="398" y2="450" stroke="#f6f0df" stroke-width="2"/><line x1="410" y1="112" x2="410" y2="450" stroke="#f6f0df" stroke-width="2"/></g><text x="92" y="118" fill="#d4af37" font-size="22" font-family="Inter, Arial, sans-serif" font-weight="900" letter-spacing="4">VIOLIN / INTERMEDIATE</text><text x="92" y="178" fill="#f8f3e4" font-size="44" font-family="Inter, Arial, sans-serif" font-weight="700">First Position Scales</text><text x="92" y="302" fill="#b8ad93" font-size="25" font-family="Inter, Arial, sans-serif">D major and A major</text><g><circle cx="786" cy="190" r="22" fill="#d4af37"/><text x="786" y="198" text-anchor="middle" fill="#0a0a0a" font-size="22" font-family="Inter, Arial, sans-serif" font-weight="900">1</text><text x="820" y="198" fill="#f6f0df" font-size="22" font-family="Inter, Arial, sans-serif" font-weight="800">Pattern box</text><circle cx="786" cy="278" r="22" fill="#d4af37"/><text x="786" y="286" text-anchor="middle" fill="#0a0a0a" font-size="22" font-family="Inter, Arial, sans-serif" font-weight="900">2</text><text x="820" y="286" fill="#f6f0df" font-size="22" font-family="Inter, Arial, sans-serif" font-weight="800">Root notes</text><circle cx="786" cy="366" r="22" fill="#d4af37"/><text x="786" y="374" text-anchor="middle" fill="#0a0a0a" font-size="22" font-family="Inter, Arial, sans-serif" font-weight="900">3</text><text x="820" y="374" fill="#f6f0df" font-size="22" font-family="Inter, Arial, sans-serif" font-weight="800">Alternate picking</text></g><rect x="760" y="470" width="320" height="110" rx="18" fill="rgba(255,255,255,0.07)" stroke="rgba(212,175,55,0.35)"/><text x="790" y="514" fill="#d4af37" font-size="22" font-family="Inter, Arial, sans-serif" font-weight="900">Practice Check</text><text x="790" y="552" fill="#f6f0df" font-size="22" font-family="Inter, Arial, sans-serif">Study the labels, then take</text><text x="790" y="582" fill="#f6f0df" font-size="22" font-family="Inter, Arial, sans-serif">the quiz to unlock progress.</text><text x="92" y="666" fill="#8f866f" font-size="19" font-family="Inter, Arial, sans-serif">Crescendo verified lesson diagram 41</text></svg>